<?xml version="1.0" encoding="utf-8"?>
<!-- Generator: Adobe Illustrator 27.4.1, SVG Export Plug-In . SVG Version: 6.00 Build 0)  -->
<svg version="1.1" id="Layer_1" xmlns="http://www.w3.org/2000/svg" xmlns:xlink="http://www.w3.org/1999/xlink" x="0px" y="0px"
	 viewBox="0 0 720 720" style="enable-background:new 0 0 720 720;" xml:space="preserve">
<style type="text/css">
	.st0{fill:#231F20;}
</style>
<g id="Layer_2_00000148625794885259381660000015446077558753859206_">
	<path class="st0" d="M236.6,485.7c0,0,66.2,8.6,92.1-29.7c0,0,51.8-30.7,78.7-1c0,0,39.3,6.7,32.6,31.7c0,0,6.4,5.1,11.5-1.9
		c0,0,3.2-7,28.1-3.8l5.8-5.8c0,0-0.6-8.3,21.7-17.9l1.1-6.2c0,0-61.4,22.2-63.1,8.1c0,0-48.6-24.9-48.6-40.9v-34.5
		c0,0,51.8-1.9,44.1-75.5c0,0,3.8-8.3,10.9-1.3c0,0,49.9,29.4,62.7,28.1l-0.3-3.8l-2.6-0.6c0,0,8.9-18.9,2.2-21.7
		c0,0-6.7-6.1-2.2-10.6c0,0,8.6-3.8,13.8,8.3c0,0,7,12.7,21.5,23.3l-0.4,9.8l14.1-3.4c0,0,39.2,0,37.5-6.8c0,0,3-4.7-22.2-5.5
		c0,0-13.2-17.1-14.1-21.7c0,0-8.1-17.9-44.3-16.2l-32.4,3.8c0,0-28.1-30.7-58.8-21.3c0,0-19.6,3-24.7,17.9c0,0-10.7,13.6-18.8,8.5
		c0,0-28.8-30.3-77.4-18.8c0,0-25.6,7.7-32,5.8c0,0-19.2,9.6-26.2,18.5c0,0-56.9,27.5-60.8,46.7c0,0-1.9,18.5-33.3,50.5l-1.1,3.4
		l3,1.7c0,0-12.4,14.9-12.4,39.2l-21.7,23.5l-0.4,11.1l5.5,0.4l19.2-18.3c0,0,6.8,10.2,16.2-13.6c0,0,26.9-9.4,32-11.5l0.4,16.2
		c0,0-32.4,12.4-35.4,28.1c0,0,11.9,14.9,17.1,14.1l20.9-14.5c0,0,23.5-0.4,23.9,3c0,0,4.7,3,4.3,8.5l-0.4,28.6
		c0,0,6.4,8.9,14.5,2.1c0,0,7.7-4.7,20.5-2.1c0,0,0.9-6.4,15.8-8.5c0,0,3-4.7-7.7-7.2C266.9,501.8,240,498.2,236.6,485.7z"/>
</g>
</svg>
