<?xml version="1.0" encoding="utf-8"?>
<!-- Generator: Adobe Illustrator 28.1.0, SVG Export Plug-In . SVG Version: 6.00 Build 0)  -->
<svg version="1.1" id="Layer_1" xmlns="http://www.w3.org/2000/svg" xmlns:xlink="http://www.w3.org/1999/xlink" x="0px" y="0px"
	 viewBox="0 0 2000 1080" style="enable-background:new 0 0 2000 1080;" xml:space="preserve">
<style type="text/css">
	.st0{fill:#FFFFFF;}
</style>
<g>
	<g>
		<path class="st0" d="M1246.46,364.18c41.07-95.1-60.93-267.91-191.6-324.48s-326.49-12.61-367.7,82.43
			c-14.15,42.46-11.28,88.76,8,129.15c34.79,85.67,100.25,155.3,183.61,195.32C1009.41,503.14,1205.25,459.22,1246.46,364.18z
			 M1199.19,250.57c14.77,30.04,17.66,64.54,8.1,96.62c-12.19,28.14-48.02,51.75-93.75,66.37l77.89-179.97
			C1194.13,239.29,1196.97,244.96,1199.19,250.57z M726.37,139.1c12.15-28.12,47.98-51.74,93.71-66.35l-77.89,179.97
			C721.51,209.49,714.18,167.21,726.37,139.1L726.37,139.1z M895.71,407.46c-51.38-24.08-95.26-61.65-126.95-108.72L871.81,60.62
			c56-9.08,113.42-2.78,166.11,18.24c51.4,24.14,95.24,61.84,126.82,109.03l-102.88,237.73
			C1005.85,434.73,948.42,428.45,895.71,407.46L895.71,407.46z M1017.44,354.06c-10.81-4.68-15.78-17.24-11.1-28.05l15.49-35.8
			l-43.91-19L962.42,307c-4.49,10.89-16.96,16.08-27.85,11.59c-10.89-4.49-16.08-16.96-11.59-27.85c0.09-0.23,0.19-0.45,0.29-0.68
			l15.49-35.8l-43.91-19l-15.49,35.8c-4.49,10.89-16.96,16.08-27.85,11.59c-10.89-4.49-16.08-16.96-11.59-27.85
			c0.09-0.23,0.19-0.46,0.29-0.68l47.93-110.75c4.87-10.73,17.51-15.48,28.24-10.62c10.47,4.75,15.29,16.93,10.91,27.56l-15.49,35.8
			l43.91,19l15.49-35.8c4.87-10.73,17.51-15.48,28.24-10.62c10.47,4.75,15.29,16.93,10.91,27.56l-15.49,35.8l43.91,19l15.49-35.8
			c4.87-10.73,17.51-15.48,28.24-10.62c10.47,4.75,15.29,16.93,10.91,27.56l-47.93,110.75
			C1040.81,353.76,1028.25,358.73,1017.44,354.06L1017.44,354.06z"/>
	</g>
	<g>
		<path class="st0" d="M1195.77,797.1H769.11c-11.78,0-21.33-9.55-21.33-21.33V349.1c0-11.78-9.55-21.33-21.33-21.33
			c-11.78,0-21.33,9.55-21.33,21.33v426.67c0,35.35,28.65,64,64,64h426.67c11.78,0,21.33-9.55,21.33-21.33
			C1217.11,806.66,1207.56,797.1,1195.77,797.1z"/>
		<path class="st0" d="M1025.11,754.44c11.78,0,21.33-9.55,21.33-21.33V583.77c0-11.78-9.55-21.33-21.33-21.33
			c-11.78,0-21.33,9.55-21.33,21.33V733.1C1003.77,744.89,1013.32,754.44,1025.11,754.44z"/>
		<path class="st0" d="M854.44,754.44c11.78,0,21.33-9.55,21.33-21.33V583.77c0-11.78-9.55-21.33-21.33-21.33
			c-11.78,0-21.33,9.55-21.33,21.33V733.1C833.11,744.89,842.66,754.44,854.44,754.44z"/>
		<path class="st0" d="M1110.44,754.44c11.78,0,21.33-9.55,21.33-21.33v-256c0-11.78-9.55-21.33-21.33-21.33
			s-21.33,9.55-21.33,21.33v256C1089.11,744.89,1098.66,754.44,1110.44,754.44z"/>
		<path class="st0" d="M939.77,754.44c11.78,0,21.33-9.55,21.33-21.33v-256c0-11.78-9.55-21.33-21.33-21.33s-21.33,9.55-21.33,21.33
			v256C918.44,744.89,927.99,754.44,939.77,754.44z"/>
	</g>
</g>
<path class="st0" d="M230.76,598.08H117.89v72.35h94.34c8.75,0,15.27,1.96,19.58,5.88c4.31,3.92,6.46,9.17,6.46,15.72
	s-2.19,11.77-6.56,15.63c-4.37,3.86-10.87,5.79-19.49,5.79h-94.34v93.19c0,11.83-2.67,20.62-8.01,26.34
	c-5.34,5.72-12.19,8.59-20.55,8.59c-8.49,0-15.4-2.9-20.74-8.68c-5.34-5.79-8.01-14.53-8.01-26.24V589.01
	c0-8.23,1.22-14.95,3.67-20.16c2.44-5.21,6.27-9,11.48-11.38c5.21-2.38,11.87-3.57,19.97-3.57h135.05c9.13,0,15.92,2.03,20.35,6.08
	c4.44,4.05,6.66,9.36,6.66,15.92c0,6.69-2.22,12.06-6.66,16.11C246.68,596.05,239.89,598.08,230.76,598.08z"/>
<path class="st0" d="M215.36,801.94c0,5.81-0.9,11.16-2.71,16.06c-1.81,4.9-4.43,9.11-7.85,12.64c-3.43,3.52-7.52,6.22-12.28,8.1
	c-4.76,1.88-10.11,2.82-16.06,2.82c-5.9,0-11.21-0.95-15.92-2.86c-4.71-1.9-8.79-4.63-12.24-8.17c-3.45-3.54-6.07-7.73-7.85-12.56
	s-2.68-10.17-2.68-16.03c0-5.9,0.9-11.3,2.71-16.21c1.81-4.9,4.4-9.09,7.78-12.56c3.38-3.47,7.47-6.15,12.28-8.03
	c4.81-1.88,10.11-2.82,15.92-2.82c5.9,0,11.25,0.95,16.06,2.86c4.81,1.9,8.92,4.62,12.35,8.14c3.43,3.52,6.03,7.71,7.82,12.56
	C214.47,790.73,215.36,796.08,215.36,801.94z M195.8,801.94c0-7.95-1.75-14.13-5.25-18.56s-8.2-6.64-14.1-6.64
	c-3.81,0-7.16,0.99-10.07,2.96c-2.9,1.98-5.14,4.89-6.71,8.75c-1.57,3.86-2.36,8.35-2.36,13.49c0,5.09,0.77,9.54,2.32,13.35
	c1.55,3.81,3.76,6.72,6.64,8.75c2.88,2.02,6.27,3.03,10.17,3.03c5.9,0,10.6-2.22,14.1-6.67C194.05,815.94,195.8,809.79,195.8,801.94
	z"/>
<path class="st0" d="M303.67,801.94c0,5.81-0.9,11.16-2.71,16.06c-1.81,4.9-4.43,9.11-7.85,12.64c-3.43,3.52-7.52,6.22-12.28,8.1
	c-4.76,1.88-10.11,2.82-16.06,2.82c-5.9,0-11.21-0.95-15.92-2.86c-4.71-1.9-8.79-4.63-12.24-8.17c-3.45-3.54-6.07-7.73-7.85-12.56
	s-2.68-10.17-2.68-16.03c0-5.9,0.9-11.3,2.71-16.21c1.81-4.9,4.4-9.09,7.78-12.56c3.38-3.47,7.47-6.15,12.28-8.03
	c4.81-1.88,10.11-2.82,15.92-2.82c5.9,0,11.25,0.95,16.06,2.86c4.81,1.9,8.92,4.62,12.35,8.14c3.43,3.52,6.03,7.71,7.82,12.56
	C302.78,790.73,303.67,796.08,303.67,801.94z M284.11,801.94c0-7.95-1.75-14.13-5.25-18.56s-8.2-6.64-14.1-6.64
	c-3.81,0-7.16,0.99-10.07,2.96c-2.9,1.98-5.14,4.89-6.71,8.75c-1.57,3.86-2.36,8.35-2.36,13.49c0,5.09,0.77,9.54,2.32,13.35
	c1.55,3.81,3.76,6.72,6.64,8.75c2.88,2.02,6.27,3.03,10.17,3.03c5.9,0,10.6-2.22,14.1-6.67
	C282.36,815.94,284.11,809.79,284.11,801.94z"/>
<path class="st0" d="M320.09,764.03h2.14v-11.71c0-3.14,0.08-5.6,0.25-7.39c0.17-1.79,0.63-3.32,1.39-4.6
	c0.76-1.33,1.86-2.42,3.28-3.25c1.43-0.83,3.02-1.25,4.78-1.25c2.47,0,4.71,0.93,6.71,2.78c1.33,1.24,2.18,2.75,2.53,4.53
	c0.36,1.79,0.54,4.32,0.54,7.6v13.28h7.14c2.76,0,4.87,0.66,6.32,1.96c1.45,1.31,2.18,2.99,2.18,5.03c0,2.62-1.03,4.45-3.1,5.5
	c-2.07,1.05-5.03,1.57-8.89,1.57h-3.64v35.84c0,3.05,0.11,5.39,0.32,7.03c0.21,1.64,0.79,2.97,1.71,4c0.93,1.02,2.44,1.54,4.53,1.54
	c1.14,0,2.69-0.2,4.64-0.61c1.95-0.4,3.47-0.61,4.57-0.61c1.57,0,2.99,0.63,4.25,1.89c1.26,1.26,1.89,2.82,1.89,4.68
	c0,3.14-1.71,5.54-5.14,7.21c-3.43,1.67-8.35,2.5-14.78,2.5c-6.09,0-10.71-1.02-13.85-3.07s-5.2-4.88-6.17-8.5
	c-0.98-3.62-1.46-8.45-1.46-14.49v-37.41h-2.57c-2.81,0-4.95-0.67-6.42-2c-1.48-1.33-2.21-3.02-2.21-5.07
	c0-2.04,0.77-3.72,2.32-5.03C314.89,764.68,317.14,764.03,320.09,764.03z"/>
<path class="st0" d="M388.76,744.47v29.77c3.66-3.81,7.4-6.72,11.21-8.75c3.81-2.02,8.52-3.03,14.13-3.03
	c6.47,0,12.15,1.54,17.03,4.6c4.88,3.07,8.66,7.52,11.35,13.35c2.69,5.83,4.03,12.74,4.03,20.74c0,5.9-0.75,11.32-2.25,16.24
	c-1.5,4.93-3.68,9.2-6.53,12.81c-2.86,3.62-6.32,6.41-10.39,8.39c-4.07,1.97-8.56,2.96-13.46,2.96c-3,0-5.82-0.36-8.46-1.07
	c-2.64-0.71-4.89-1.65-6.75-2.82s-3.44-2.37-4.75-3.61c-1.31-1.24-3.03-3.09-5.18-5.57v1.93c0,3.67-0.88,6.44-2.64,8.32
	c-1.76,1.88-4,2.82-6.71,2.82c-2.76,0-4.96-0.94-6.6-2.82c-1.64-1.88-2.46-4.65-2.46-8.32v-85.09c0-3.95,0.8-6.94,2.39-8.96
	c1.59-2.02,3.82-3.03,6.67-3.03c3,0,5.31,0.96,6.92,2.89C387.95,738.15,388.76,740.9,388.76,744.47z M389.69,802.36
	c0,7.76,1.77,13.72,5.32,17.88c3.54,4.17,8.2,6.25,13.96,6.25c4.9,0,9.13-2.13,12.67-6.39c3.54-4.26,5.32-10.36,5.32-18.31
	c0-5.14-0.74-9.57-2.21-13.28c-1.48-3.71-3.57-6.58-6.28-8.6c-2.71-2.02-5.88-3.03-9.49-3.03c-3.71,0-7.02,1.01-9.92,3.03
	c-2.9,2.02-5.19,4.95-6.85,8.78C390.52,792.52,389.69,797.08,389.69,802.36z"/>
<path class="st0" d="M511.41,830.56c-4.71,3.67-9.27,6.41-13.67,8.25c-4.4,1.83-9.34,2.75-14.81,2.75c-5,0-9.39-0.99-13.17-2.96
	s-6.7-4.65-8.75-8.03c-2.05-3.38-3.07-7.04-3.07-10.99c0-5.33,1.69-9.88,5.07-13.63c3.38-3.76,8.02-6.28,13.92-7.57
	c1.24-0.29,4.31-0.93,9.21-1.93c4.9-1,9.1-1.92,12.6-2.75c3.5-0.83,7.29-1.84,11.39-3.03c-0.24-5.14-1.27-8.91-3.11-11.31
	c-1.83-2.4-5.63-3.61-11.39-3.61c-4.95,0-8.67,0.69-11.17,2.07c-2.5,1.38-4.64,3.45-6.42,6.21c-1.78,2.76-3.05,4.58-3.78,5.46
	c-0.74,0.88-2.32,1.32-4.75,1.32c-2.19,0-4.08-0.7-5.68-2.11c-1.59-1.4-2.39-3.2-2.39-5.39c0-3.43,1.21-6.76,3.64-9.99
	s6.21-5.9,11.35-8c5.14-2.09,11.54-3.14,19.2-3.14c8.57,0,15.3,1.01,20.2,3.03c4.9,2.02,8.36,5.22,10.39,9.6
	c2.02,4.38,3.03,10.18,3.03,17.42c0,4.57-0.01,8.45-0.04,11.64c-0.02,3.19-0.06,6.74-0.11,10.64c0,3.67,0.61,7.48,1.82,11.46
	c1.21,3.97,1.82,6.53,1.82,7.67c0,2-0.94,3.82-2.82,5.46c-1.88,1.64-4.01,2.46-6.39,2.46c-2,0-3.97-0.94-5.93-2.82
	C515.67,836.86,513.6,834.13,511.41,830.56z M510.12,802.36c-2.86,1.05-7.01,2.15-12.46,3.32c-5.45,1.17-9.22,2.02-11.31,2.57
	c-2.09,0.55-4.09,1.62-6,3.21c-1.9,1.6-2.86,3.82-2.86,6.67c0,2.95,1.12,5.46,3.36,7.53c2.24,2.07,5.16,3.11,8.78,3.11
	c3.85,0,7.41-0.84,10.67-2.53c3.26-1.69,5.65-3.87,7.17-6.53c1.76-2.95,2.64-7.81,2.64-14.56V802.36z"/>
<path class="st0" d="M549.03,829.71v-84.52c0-3.9,0.87-6.85,2.61-8.85c1.74-2,4.08-3,7.03-3c2.95,0,5.33,0.99,7.14,2.96
	c1.81,1.97,2.71,4.94,2.71,8.89v84.52c0,3.95-0.92,6.91-2.75,8.89c-1.83,1.97-4.2,2.96-7.1,2.96c-2.86,0-5.18-1.02-6.96-3.07
	S549.03,833.51,549.03,829.71z"/>
<path class="st0" d="M588.65,829.71v-84.52c0-3.9,0.87-6.85,2.61-8.85c1.74-2,4.08-3,7.03-3c2.95,0,5.33,0.99,7.14,2.96
	c1.81,1.97,2.71,4.94,2.71,8.89v84.52c0,3.95-0.92,6.91-2.75,8.89c-1.83,1.97-4.2,2.96-7.1,2.96c-2.86,0-5.18-1.02-6.96-3.07
	S588.65,833.51,588.65,829.71z"/>
<path class="st0" d="M1330.13,830.14l-5-13.13h-42.55l-5,13.42c-1.95,5.24-3.62,8.77-5,10.6c-1.38,1.83-3.64,2.75-6.78,2.75
	c-2.67,0-5.02-0.98-7.07-2.93c-2.05-1.95-3.07-4.16-3.07-6.64c0-1.43,0.24-2.9,0.71-4.43c0.48-1.52,1.26-3.64,2.36-6.35l26.77-67.96
	c0.76-1.95,1.68-4.29,2.75-7.03c1.07-2.74,2.21-5.01,3.43-6.82c1.21-1.81,2.81-3.27,4.78-4.39c1.97-1.12,4.41-1.68,7.32-1.68
	c2.95,0,5.41,0.56,7.39,1.68c1.97,1.12,3.57,2.56,4.78,4.32c1.21,1.76,2.24,3.65,3.07,5.68c0.83,2.02,1.89,4.72,3.18,8.1
	l27.34,67.53c2.14,5.14,3.21,8.88,3.21,11.21c0,2.43-1.01,4.65-3.03,6.67c-2.02,2.02-4.46,3.03-7.32,3.03
	c-1.67,0-3.09-0.3-4.28-0.89c-1.19-0.6-2.19-1.4-3-2.43c-0.81-1.02-1.68-2.59-2.61-4.71C1331.6,833.63,1330.8,831.76,1330.13,830.14
	z M1288.16,801.08h31.27l-15.78-43.19L1288.16,801.08z"/>
<path class="st0" d="M1384.67,775.31v2.36c3.43-4.52,7.17-7.84,11.24-9.96c4.07-2.12,8.75-3.18,14.03-3.18
	c5.14,0,9.73,1.12,13.78,3.36c4.04,2.24,7.07,5.4,9.07,9.49c1.29,2.38,2.12,4.95,2.5,7.71c0.38,2.76,0.57,6.28,0.57,10.57v36.27
	c0,3.9-0.89,6.85-2.68,8.85c-1.78,2-4.1,3-6.96,3c-2.9,0-5.26-1.02-7.07-3.07c-1.81-2.05-2.71-4.97-2.71-8.78v-32.48
	c0-6.43-0.89-11.34-2.68-14.74c-1.78-3.4-5.34-5.1-10.67-5.1c-3.47,0-6.64,1.04-9.5,3.11s-4.95,4.92-6.28,8.53
	c-0.95,2.9-1.43,8.33-1.43,16.28v24.42c0,3.95-0.92,6.91-2.75,8.89c-1.83,1.97-4.2,2.96-7.1,2.96c-2.81,0-5.12-1.02-6.92-3.07
	c-1.81-2.05-2.71-4.97-2.71-8.78V775.6c0-3.71,0.81-6.48,2.43-8.32c1.62-1.83,3.83-2.75,6.64-2.75c1.71,0,3.26,0.41,4.64,1.21
	c1.38,0.81,2.49,2.02,3.32,3.64C1384.26,771.01,1384.67,772.98,1384.67,775.31z"/>
<path class="st0" d="M1504.53,832.78c-4.71,3.67-9.27,6.41-13.67,8.25c-4.4,1.83-9.34,2.75-14.81,2.75c-5,0-9.39-0.99-13.17-2.96
	c-3.78-1.97-6.7-4.65-8.75-8.03c-2.05-3.38-3.07-7.04-3.07-10.99c0-5.33,1.69-9.88,5.07-13.63c3.38-3.76,8.02-6.28,13.92-7.57
	c1.24-0.29,4.31-0.93,9.21-1.93c4.9-1,9.1-1.92,12.6-2.75c3.5-0.83,7.29-1.84,11.39-3.03c-0.24-5.14-1.27-8.91-3.11-11.31
	c-1.83-2.4-5.63-3.61-11.39-3.61c-4.95,0-8.67,0.69-11.17,2.07c-2.5,1.38-4.64,3.45-6.42,6.21c-1.79,2.76-3.05,4.58-3.78,5.46
	c-0.74,0.88-2.32,1.32-4.75,1.32c-2.19,0-4.08-0.7-5.68-2.11c-1.59-1.4-2.39-3.2-2.39-5.39c0-3.43,1.21-6.76,3.64-9.99
	c2.43-3.24,6.21-5.9,11.35-8c5.14-2.09,11.54-3.14,19.2-3.14c8.57,0,15.3,1.01,20.2,3.03c4.9,2.02,8.36,5.22,10.39,9.6
	c2.02,4.38,3.03,10.18,3.03,17.42c0,4.57-0.01,8.45-0.04,11.64c-0.02,3.19-0.06,6.74-0.11,10.64c0,3.67,0.61,7.48,1.82,11.46
	c1.21,3.97,1.82,6.53,1.82,7.67c0,2-0.94,3.82-2.82,5.46c-1.88,1.64-4.01,2.46-6.39,2.46c-2,0-3.97-0.94-5.93-2.82
	C1508.79,839.07,1506.72,836.35,1504.53,832.78z M1503.25,804.58c-2.86,1.05-7.01,2.15-12.46,3.32c-5.45,1.17-9.22,2.02-11.31,2.57
	c-2.09,0.55-4.09,1.62-6,3.21c-1.9,1.6-2.86,3.82-2.86,6.67c0,2.95,1.12,5.46,3.36,7.53c2.24,2.07,5.16,3.11,8.78,3.11
	c3.85,0,7.41-0.84,10.67-2.53c3.26-1.69,5.65-3.87,7.17-6.53c1.76-2.95,2.64-7.81,2.64-14.56V804.58z"/>
<path class="st0" d="M1542.16,831.92V747.4c0-3.9,0.87-6.85,2.61-8.85s4.08-3,7.03-3c2.95,0,5.33,0.99,7.14,2.96
	c1.81,1.97,2.71,4.94,2.71,8.89v84.52c0,3.95-0.92,6.91-2.75,8.89s-4.2,2.96-7.1,2.96c-2.86,0-5.18-1.02-6.96-3.07
	C1543.05,838.66,1542.16,835.73,1542.16,831.92z"/>
<path class="st0" d="M1599.77,846.2l1.79-4.35l-23.99-60.39c-1.48-3.47-2.21-6-2.21-7.57c0-1.67,0.43-3.21,1.29-4.64
	s2.04-2.57,3.53-3.43s3.06-1.29,4.68-1.29c2.81,0,4.93,0.89,6.35,2.68c1.43,1.79,2.69,4.34,3.78,7.67l16.49,47.97l15.63-44.62
	c1.24-3.62,2.36-6.45,3.36-8.5c1-2.04,2.06-3.43,3.18-4.14c1.12-0.71,2.7-1.07,4.75-1.07c1.47,0,2.89,0.39,4.25,1.18
	c1.36,0.79,2.4,1.84,3.14,3.18c0.74,1.33,1.11,2.74,1.11,4.21c-0.19,0.91-0.5,2.19-0.93,3.86c-0.43,1.67-0.95,3.35-1.57,5.07
	l-25.41,66.53c-2.19,5.85-4.33,10.45-6.42,13.78c-2.09,3.33-4.87,5.89-8.32,7.67c-3.45,1.79-8.1,2.68-13.96,2.68
	c-5.71,0-10-0.62-12.85-1.86c-2.86-1.24-4.28-3.5-4.28-6.78c0-2.24,0.68-3.96,2.04-5.18c1.36-1.21,3.37-1.82,6.03-1.82
	c1.05,0,2.07,0.14,3.07,0.43c1.24,0.29,2.31,0.43,3.21,0.43c2.24,0,4-0.33,5.28-1c1.29-0.67,2.44-1.82,3.46-3.46
	C1597.26,851.8,1598.43,849.39,1599.77,846.2z"/>
<path class="st0" d="M1721.84,818.29c0,5.38-1.31,9.98-3.93,13.81c-2.62,3.83-6.49,6.74-11.6,8.71c-5.12,1.97-11.34,2.96-18.67,2.96
	c-7,0-12.99-1.07-17.99-3.21s-8.69-4.82-11.07-8.03c-2.38-3.21-3.57-6.44-3.57-9.67c0-2.14,0.76-3.97,2.29-5.5
	c1.52-1.52,3.45-2.28,5.78-2.28c2.05,0,3.62,0.5,4.71,1.5c1.09,1,2.14,2.4,3.14,4.21c2,3.47,4.39,6.07,7.17,7.78
	s6.58,2.57,11.39,2.57c3.9,0,7.1-0.87,9.6-2.61c2.5-1.74,3.75-3.72,3.75-5.96c0-3.43-1.3-5.92-3.89-7.5
	c-2.59-1.57-6.87-3.07-12.81-4.5c-6.71-1.67-12.17-3.41-16.38-5.25c-4.21-1.83-7.58-4.25-10.1-7.25c-2.52-3-3.78-6.69-3.78-11.07
	c0-3.9,1.17-7.59,3.5-11.07c2.33-3.47,5.77-6.25,10.32-8.32c4.54-2.07,10.03-3.11,16.45-3.11c5.04,0,9.58,0.52,13.6,1.57
	c4.02,1.05,7.38,2.45,10.07,4.21c2.69,1.76,4.73,3.71,6.14,5.85c1.4,2.14,2.11,4.24,2.11,6.28c0,2.24-0.75,4.07-2.25,5.5
	s-3.63,2.14-6.39,2.14c-2,0-3.7-0.57-5.1-1.71c-1.4-1.14-3.01-2.86-4.82-5.14c-1.48-1.9-3.21-3.43-5.21-4.57s-4.71-1.71-8.14-1.71
	c-3.52,0-6.45,0.75-8.78,2.25c-2.33,1.5-3.5,3.37-3.5,5.6c0,2.05,0.86,3.72,2.57,5.03c1.71,1.31,4.02,2.39,6.92,3.25
	c2.9,0.86,6.9,1.9,11.99,3.14c6.04,1.48,10.98,3.24,14.81,5.28c3.83,2.05,6.73,4.46,8.71,7.25S1721.84,814.72,1721.84,818.29z"/>
<path class="st0" d="M1748.18,755.47c-2.71,0-5.03-0.83-6.96-2.5s-2.89-4.02-2.89-7.07c0-2.76,0.99-5.03,2.96-6.82
	c1.97-1.78,4.27-2.68,6.89-2.68c2.52,0,4.76,0.81,6.71,2.43c1.95,1.62,2.93,3.97,2.93,7.07c0,3-0.95,5.34-2.86,7.03
	C1753.06,754.62,1750.8,755.47,1748.18,755.47z M1757.82,775.6v56.33c0,3.9-0.93,6.85-2.78,8.85c-1.86,2-4.21,3-7.07,3
	s-5.18-1.02-6.96-3.07c-1.79-2.05-2.68-4.97-2.68-8.78v-55.75c0-3.86,0.89-6.76,2.68-8.71c1.78-1.95,4.1-2.93,6.96-2.93
	s5.21,0.98,7.07,2.93C1756.89,769.41,1757.82,772.12,1757.82,775.6z"/>
<path class="st0" d="M1987.19,762.41c0,17.17-4.18,31.87-12.53,44.1c-8.36,12.23-20.7,21.5-37.03,27.81
	c-16.34,6.3-36.2,9.46-59.6,9.46c-22.33,0-41.48-3.42-57.43-10.26c-15.95-6.84-27.73-15.38-35.33-25.64
	c-7.6-10.25-11.39-20.54-11.39-30.88c0-6.84,2.43-12.69,7.3-17.55c4.86-4.86,11.01-7.29,18.46-7.29c6.53,0,11.54,1.59,15.04,4.79
	c3.49,3.19,6.84,7.67,10.03,13.45c6.38,11.09,14.02,19.37,22.9,24.84s21,8.21,36.35,8.21c12.46,0,22.68-2.77,30.65-8.32
	c7.98-5.54,11.97-11.88,11.97-19.03c0-10.94-4.14-18.91-12.42-23.93c-8.28-5.01-21.92-9.8-40.91-14.36
	c-21.42-5.32-38.85-10.9-52.3-16.75c-13.45-5.85-24.2-13.56-32.25-23.13c-8.06-9.57-12.08-21.35-12.08-35.33
	c0-12.46,3.72-24.23,11.17-35.33c7.44-11.09,18.42-19.94,32.93-26.55c14.51-6.61,32.02-9.91,52.53-9.91
	c16.11,0,30.57,1.67,43.42,5.01c12.84,3.35,23.55,7.83,32.14,13.45c8.58,5.62,15.11,11.85,19.6,18.69
	c4.48,6.84,6.72,13.52,6.72,20.05c0,7.15-2.39,12.99-7.18,17.55c-4.79,4.56-11.59,6.84-20.4,6.84c-6.38,0-11.82-1.82-16.3-5.47
	c-4.48-3.65-9.61-9.12-15.39-16.41c-4.71-6.08-10.25-10.94-16.64-14.59c-6.38-3.65-15.04-5.47-25.98-5.47
	c-11.25,0-20.59,2.39-28.03,7.18c-7.44,4.79-11.17,10.75-11.17,17.89c0,6.53,2.73,11.89,8.21,16.06
	c5.47,4.18,12.83,7.63,22.11,10.37c9.27,2.73,22.03,6.08,38.29,10.03c19.29,4.71,35.06,10.33,47.29,16.87
	c12.23,6.53,21.5,14.24,27.8,23.13S1987.19,751.02,1987.19,762.41z"/>
</svg>
