<?xml version="1.0" encoding="UTF-8"?><svg id="Layer_1" xmlns="http://www.w3.org/2000/svg" viewBox="0 0 701.84 274.43"><defs><style>.cls-1,.cls-2,.cls-3{fill:#fff;}.cls-4{stroke-width:8px;}.cls-4,.cls-5{fill:none;stroke:#fff;}.cls-4,.cls-5,.cls-6{stroke-linecap:round;stroke-miterlimit:10;}.cls-2{font-size:59px;}.cls-2,.cls-3{font-family:Helvetica-Bold, Helvetica;font-weight:700;}.cls-7{letter-spacing:-.05em;}.cls-5{stroke-width:11px;}.cls-3{font-size:200px;}.cls-6{stroke:#000;stroke-width:.25px;}</style></defs><text class="cls-3" transform="translate(179.83 171.97)"><tspan class="cls-7" x="0" y="0">T</tspan><tspan x="111.23" y="0">ree</tspan></text><text class="cls-2" transform="translate(221.34 239.4)"><tspan x="0" y="0">Photography</tspan></text><line class="cls-5" x1="81.5" y1="250.74" x2="82.05" y2="106.97"/><line class="cls-4" x1="77.34" y1="208.46" x2="31.01" y2="145.25"/><line class="cls-4" x1="83.46" y1="188.26" x2="135.4" y2="124.36"/><path class="cls-1" d="m142.48,92.94c1.57-5.38,2.42-11.07,2.42-16.96,0-33.51-27.16-60.67-60.67-60.67s-60.67,27.16-60.67,60.67c0,5.08.63,10,1.81,14.72C10.47,96.98,0,111.72,0,128.91c0,22.89,18.56,41.45,41.45,41.45,20.26,0,37.12-14.55,40.73-33.76.15,0,.3,0,.45.01,3.25,19.64,20.31,34.63,40.88,34.63,22.89,0,41.45-18.56,41.45-41.45,0-16.05-9.13-29.96-22.47-36.84Z"/><path class="cls-6" d="m105.73,167.17l-6.66-3.99c-.25-.16-.33.09-.14-.14l33.42-40.03s2.91-4.28,5.83-.31c0,0,1.84,1.99-2.15,6.27l-30.29,38.2Z"/><path class="cls-6" d="m53.13,168.76s-6.26,1.41-8.73,1.13l-16.24-22.8s-1.24-3.15,1.24-4.3c0,0,3.86-1.15,5.56,2.86l18.17,23.1Z"/><path class="cls-6" d="m86.29,148.06l.69-40.69s.23-5.49-5.26-5.49c0,0-4.8.23-4.34,7.09l-.69,41.6s4.34-6.17,5.71-14.17c0,0,1.83,9.14,3.89,11.66Z"/></svg>